<?xml version="1.0" encoding="UTF-8" standalone="no"?>
<!DOCTYPE svg PUBLIC "-//W3C//DTD SVG 1.1//EN" "http://www.w3.org/Graphics/SVG/1.1/DTD/svg11.dtd">
<svg width="100%" height="100%" viewBox="0 0 24 16" version="1.1" xmlns="http://www.w3.org/2000/svg" xmlns:xlink="http://www.w3.org/1999/xlink" xml:space="preserve" xmlns:serif="http://www.serif.com/" style="fill-rule:evenodd;clip-rule:evenodd;stroke-linejoin:round;stroke-miterlimit:2;">
    <g transform="matrix(1,0,0,1,12,8)">
        <g transform="matrix(1,0,0,1,-8,-8)">
            <path d="M8,1C6.674,1 5.437,1.365 4.383,2L2,2C1.446,2 1,2.446 1,3L1,8C1,11.878 4.122,15 8,15C11.878,15 15,11.878 15,8L15,3C15,2.446 14.554,2 14,2L11.617,2C10.563,1.365 9.326,1 8,1ZM8,3C8.666,3 9.341,3.151 9.93,3.543C10.518,3.935 11,4.666 11,5.5C11,6.949 9.746,7.723 9.5,7.865C9.215,8.03 8.941,8.132 8.648,8.234C8.668,8.254 8.687,8.273 8.707,8.293C8.907,8.493 9.281,8.8 9.713,9.135C9.902,8.606 10,8.113 10,8L12,8C12,8.695 11.795,9.51 11.385,10.361C12.044,10.824 12.555,11.168 12.555,11.168L11.445,12.832C11.445,12.832 10.926,12.486 10.252,12.014C9.677,12.579 8.929,13 8,13C6.833,13 5.864,12.711 5.15,12.176C4.437,11.641 4,10.833 4,10C4,9.239 4.33,8.558 4.766,8.082C4.971,7.857 5.198,7.669 5.432,7.506C5.18,7.062 5,6.567 5,6C5,5.167 5.386,4.45 5.918,3.918C6.45,3.386 7.167,3 8,3ZM8,5C7.833,5 7.55,5.114 7.332,5.332C7.114,5.55 7,5.833 7,6C7,6.126 7.067,6.34 7.234,6.617C7.388,6.56 7.537,6.506 7.674,6.457C8.093,6.307 8.447,6.165 8.5,6.135C8.837,5.94 9,5.958 9,5.5C9,5.332 8.982,5.315 8.82,5.207C8.659,5.1 8.334,5 8,5ZM6.678,9.084C6.497,9.201 6.344,9.32 6.24,9.434C6.061,9.629 6,9.761 6,10C6,10.167 6.063,10.359 6.35,10.574C6.636,10.789 7.167,11 8,11C8.203,11 8.4,10.932 8.592,10.805C8.099,10.428 7.636,10.05 7.293,9.707C7.09,9.504 6.882,9.297 6.678,9.084Z" style="fill:rgb(239,159,76);fill-rule:nonzero;"/>
        </g>
    </g>
</svg>
