<?xml version="1.0" encoding="UTF-8" standalone="no"?>
<!DOCTYPE svg PUBLIC "-//W3C//DTD SVG 1.1//EN" "http://www.w3.org/Graphics/SVG/1.1/DTD/svg11.dtd">
<svg width="100%" height="100%" viewBox="0 0 24 16" version="1.1" xmlns="http://www.w3.org/2000/svg" xmlns:xlink="http://www.w3.org/1999/xlink" xml:space="preserve" xmlns:serif="http://www.serif.com/" style="fill-rule:evenodd;clip-rule:evenodd;stroke-linejoin:round;stroke-miterlimit:2;">
    <g transform="matrix(1,0,0,1,16,8)">
        <g transform="matrix(1,0,0,1,-8,-8)">
            <path d="M3,0C1.338,0 0,1.338 0,3L0,13C0,14.662 1.338,16 3,16L13,16C14.662,16 16,14.662 16,13L16,3C16,1.338 14.662,0 13,0L3,0ZM3,1L13,1C14.108,1 15,1.892 15,3L15,13C15,14.108 14.108,15 13,15L3,15C1.892,15 1,14.108 1,13L1,3C1,1.892 1.892,1 3,1ZM8,3C5.257,3 3,5.257 3,8C3,10.743 5.257,13 8,13C10.743,13 13,10.743 13,8C13,5.257 10.743,3 8,3Z" style="fill:rgb(68,196,68);fill-rule:nonzero;"/>
        </g>
    </g>
</svg>
