<?xml version="1.0" encoding="UTF-8" standalone="no"?>
<!DOCTYPE svg PUBLIC "-//W3C//DTD SVG 1.1//EN" "http://www.w3.org/Graphics/SVG/1.1/DTD/svg11.dtd">
<svg width="100%" height="100%" viewBox="0 0 24 16" version="1.1" xmlns="http://www.w3.org/2000/svg" xmlns:xlink="http://www.w3.org/1999/xlink" xml:space="preserve" xmlns:serif="http://www.serif.com/" style="fill-rule:evenodd;clip-rule:evenodd;stroke-linejoin:round;stroke-miterlimit:2;">
    <g transform="matrix(1,0,0,1,12,8)">
        <g transform="matrix(1,0,0,1,-8,-8)">
            <path d="M3,0C1.338,0 0,1.338 0,3L0,13C0,14.662 1.338,16 3,16L13,16C14.662,16 16,14.662 16,13L16,3C16,1.338 14.662,0 13,0L3,0ZM3,1L13,1C14.108,1 15,1.892 15,3L15,13C15,14.108 14.108,15 13,15L3,15C1.892,15 1,14.108 1,13L1,3C1,1.892 1.892,1 3,1ZM8,2.5C6.629,2.5 5.5,3.629 5.5,5C5.503,5.533 5.676,6.052 5.994,6.48L4.848,8.473C4.747,8.461 4.646,8.455 4.545,8.455C3.149,8.455 2,9.604 2,11C2,12.396 3.149,13.545 4.545,13.545C5.561,13.544 6.483,12.934 6.883,12L9.195,12C9.58,12.931 10.492,13.543 11.5,13.545C12.871,13.545 14,12.416 14,11.045C14,9.673 12.871,8.545 11.5,8.545C11.412,8.547 11.324,8.553 11.236,8.564L10.014,6.469C10.327,6.043 10.497,5.529 10.5,5C10.5,3.629 9.371,2.5 8,2.5ZM8.289,7.479L9.5,9.555C9.395,9.693 9.305,9.843 9.23,10L6.885,10C6.805,9.812 6.703,9.634 6.58,9.471L7.727,7.48C7.817,7.492 7.909,7.498 8,7.5C8.097,7.498 8.193,7.491 8.289,7.479Z" style="fill:rgb(68,196,68);fill-rule:nonzero;"/>
        </g>
    </g>
</svg>
