<?xml version="1.0" encoding="UTF-8" standalone="no"?>
<!DOCTYPE svg PUBLIC "-//W3C//DTD SVG 1.1//EN" "http://www.w3.org/Graphics/SVG/1.1/DTD/svg11.dtd">
<svg width="100%" height="100%" viewBox="0 0 24 16" version="1.1" xmlns="http://www.w3.org/2000/svg" xmlns:xlink="http://www.w3.org/1999/xlink" xml:space="preserve" xmlns:serif="http://www.serif.com/" style="fill-rule:evenodd;clip-rule:evenodd;stroke-linejoin:round;stroke-miterlimit:2;">
    <g transform="matrix(1,0,0,1,12,8)">
        <g transform="matrix(1,0,0,1,-8,-8)">
            <path d="M3,0C1.338,0 0,1.338 0,3L0,5L1,5L1,3C1,1.892 1.892,1 3,1L13,1C14.108,1 15,1.892 15,3L15,13C15,14.108 14.108,15 13,15L3,15C1.892,15 1,14.108 1,13L1,10L0,10L0,13C0,14.662 1.338,16 3,16L13,16C14.662,16 16,14.662 16,13L16,3C16,1.338 14.662,0 13,0L3,0ZM8,3C5.567,3.003 3.472,4.782 3.074,7.182L1.555,6.168L0.445,7.832L3.445,9.832C3.781,10.055 4.219,10.055 4.555,9.832L7.555,7.832L6.445,6.168L5.17,7.02C5.586,5.816 6.726,5.002 8,5C9.646,5 11,6.354 11,8C11,9.646 9.646,11 8,11C7.206,10.996 6.446,10.677 5.887,10.113L4.473,11.527C5.407,12.466 6.676,12.996 8,13C10.743,13 13,10.743 13,8C13,5.257 10.743,3 8,3Z" style="fill:rgb(68,196,68);fill-rule:nonzero;"/>
        </g>
    </g>
</svg>
