<?xml version="1.0" encoding="UTF-8" standalone="no"?>
<!DOCTYPE svg PUBLIC "-//W3C//DTD SVG 1.1//EN" "http://www.w3.org/Graphics/SVG/1.1/DTD/svg11.dtd">
<svg width="100%" height="100%" viewBox="0 0 24 16" version="1.1" xmlns="http://www.w3.org/2000/svg" xmlns:xlink="http://www.w3.org/1999/xlink" xml:space="preserve" xmlns:serif="http://www.serif.com/" style="fill-rule:evenodd;clip-rule:evenodd;stroke-linejoin:round;stroke-miterlimit:2;">
    <g transform="matrix(1,0,0,1,16,8)">
        <g transform="matrix(1,0,0,1,-8,-8)">
            <path d="M3,0C1.338,0 0,1.338 0,3L0,4L1,4L1,3C1,1.892 1.892,1 3,1L13,1C14.108,1 15,1.892 15,3L15,4L16,4L16,3C16,1.338 14.662,0 13,0L3,0ZM7,2L7,14L9,14L9,2L7,2ZM3,5C1.354,5 -0,6.354 0,8C0,9.646 1.354,11 3,11C4.646,11 6,9.646 6,8C6,6.354 4.646,5 3,5ZM13,5C11.354,5 10,6.354 10,8C10,9.646 11.354,11 13,11C14.646,11 16,9.646 16,8C16,6.354 14.646,5 13,5ZM0,12L0,13C0,14.662 1.338,16 3,16L13,16C14.662,16 16,14.662 16,13L16,12L15,12L15,13C15,14.108 14.108,15 13,15L3,15C1.892,15 1,14.108 1,13L1,12L0,12Z" style="fill:rgb(68,196,68);fill-rule:nonzero;"/>
        </g>
    </g>
</svg>
