<?xml version="1.0" encoding="UTF-8" standalone="no"?>
<!DOCTYPE svg PUBLIC "-//W3C//DTD SVG 1.1//EN" "http://www.w3.org/Graphics/SVG/1.1/DTD/svg11.dtd">
<svg width="100%" height="100%" viewBox="0 0 16 16" version="1.1" xmlns="http://www.w3.org/2000/svg" xmlns:xlink="http://www.w3.org/1999/xlink" xml:space="preserve" xmlns:serif="http://www.serif.com/" style="fill-rule:evenodd;clip-rule:evenodd;stroke-linejoin:round;stroke-miterlimit:2;">
    <g id="Layer1" transform="matrix(1,0,0,1,6.5,0)">
        <path d="M3,1.5L3,9.5C3,10.328 2.328,11 1.5,11C0.672,11 -0,10.328 -0,9.5L-0,1.5C-0,0.672 0.672,0 1.5,0C2.328,0 3,0.672 3,1.5Z" style="fill:rgb(255,83,63);"/>
        <path d="M3,14.5C3,15.328 2.328,16 1.5,16C0.672,16 0,15.328 0,14.5C0,13.672 0.672,13 1.5,13C2.328,13 3,13.672 3,14.5Z" style="fill:rgb(255,83,63);"/>
    </g>
</svg>
